# xmcd
#
# Track frame offsets: 
#        150
#        34934
#        61667
#        92029
#        116727
#        140679
#        167948
#        202980
#        228856
#        268142
#        302241
#
# Disc length: 4239 seconds
#
# Revision: 0
# Processed by: cddbd v1.5.2PL0 Copyright (c) Steve Scherf et al.
# Submitted via: ExactAudioCopy v1.0b3
#
DISCID=9a108d0b
DTITLE=Various Artist - Trance-Up! Vol. 8
DYEAR=1900
DGENRE=
TTITLE0=Breeezze - Ready For Love (Vocal Trance Mix)
TTITLE1=Pierre Pulsar - U and I (Marc Maris Rmx)
TTITLE2=DJ RPM - I'm Here To Drop One (Xtd Version)
TTITLE3=Seventh Sense Feat. Mark Gillespie - Save Me (Original Xtd Mix
TTITLE3=)
TTITLE4=Klubbhoppers - Rain (Hard Mix)
TTITLE5=Smokejumper - La Vache (Club Mix)
TTITLE6=Philip D. - The Robbots (Trance Mix)
TTITLE7=666 - Rhythm Takes Control (M.A.D.R.A.S. Rmx)
TTITLE8=M.A.T. Feat. Jay P. - Take Me High (Club Mix)
TTITLE9=Scotty - Magic Melody (Scotty's Club Mix)
TTITLE10=DJ Mark Smile - Forever (Club Edit)
EXTD=
EXTT0=
EXTT1=
EXTT2=
EXTT3=
EXTT4=
EXTT5=
EXTT6=
EXTT7=
EXTT8=
EXTT9=
EXTT10=
PLAYORDER=
